# xmcd
#
# Track frame offsets:
#	150
#	16443
#	34543
#	51660
#	64820
#	81358
#	93763
#	112694
#	127654
#	141604
#	157273
#	170516
#	190858
#
# Disc length: 2752 seconds
#
# Revision: 0
# Processed by: cddbd v1.5.2PL0 Copyright (c) Steve Scherf et al.
# Submitted via: dBpowerAMP V4.0
#
DISCID=ae0abe0d
DTITLE=Sara Petite - Doghouse Rose
DYEAR=2010
DGENRE=Country
TTITLE0=Magnolia
TTITLE1=Take What I Can Get
TTITLE2=Baby Let Me
TTITLE3=Doghouse Rose
TTITLE4=He Called Me Baby
TTITLE5=Bootleggers
TTITLE6=Shouldn't Be Doing This
TTITLE7=Souvenirs
TTITLE8=Crazy
TTITLE9=Fade Away
TTITLE10=Beautiful Thing
TTITLE11=Promised Land
TTITLE12=She's Gonna Fly
EXTD=
EXTT0=
EXTT1=
EXTT2=
EXTT3=
EXTT4=
EXTT5=
EXTT6=
EXTT7=
EXTT8=
EXTT9=
EXTT10=
EXTT11=
EXTT12=
PLAYORDER=
